<svg width="32" height="33" viewBox="0 0 32 33" fill="none" xmlns="http://www.w3.org/2000/svg">
<g id="&#240;&#159;&#166;&#134; icon &#34;add&#34;">
<path id="Vector" d="M22.7153 0H9.30063C3.47373 0 0 3.47373 0 9.30063V22.6993C0 28.5422 3.47373 32.016 9.30063 32.016H22.6993C28.5262 32.016 31.9999 28.5422 31.9999 22.7153V9.30063C32.016 3.47373 28.5422 0 22.7153 0ZM25.6128 17.2086H17.2086V25.6128C17.2086 26.2691 16.6643 26.8134 16.008 26.8134C15.3516 26.8134 14.8074 26.2691 14.8074 25.6128V17.2086H6.40319C5.74686 17.2086 5.20259 16.6643 5.20259 16.008C5.20259 15.3516 5.74686 14.8074 6.40319 14.8074H14.8074V6.40319C14.8074 5.74686 15.3516 5.20259 16.008 5.20259C16.6643 5.20259 17.2086 5.74686 17.2086 6.40319V14.8074H25.6128C26.2691 14.8074 26.8134 15.3516 26.8134 16.008C26.8134 16.6643 26.2691 17.2086 25.6128 17.2086Z" fill="#40163A"/>
</g>
</svg>
