<svg width="56" height="57" viewBox="0 0 56 57" fill="none" xmlns="http://www.w3.org/2000/svg">
<g id="&#240;&#159;&#166;&#134; icon &#34;close square&#34;">
<path id="Vector" d="M39.7518 0H16.2761C6.07903 0 0 6.07903 0 16.2761V39.7238C0 49.9489 6.07903 56.0279 16.2761 56.0279H39.7238C49.9209 56.0279 55.9999 49.9489 55.9999 39.7518V16.2761C56.0279 6.07903 49.9489 0 39.7518 0ZM37.4266 34.4572C38.2391 35.2696 38.2391 36.6142 37.4266 37.4266C37.0064 37.8469 36.4742 38.043 35.9419 38.043C35.4096 38.043 34.8774 37.8469 34.4572 37.4266L28.014 30.9834L21.5707 37.4266C21.1505 37.8469 20.6183 38.043 20.086 38.043C19.5537 38.043 19.0215 37.8469 18.6013 37.4266C17.7889 36.6142 17.7889 35.2696 18.6013 34.4572L25.0445 28.014L18.6013 21.5707C17.7889 20.7583 17.7889 19.4137 18.6013 18.6013C19.4137 17.7889 20.7583 17.7889 21.5707 18.6013L28.014 25.0445L34.4572 18.6013C35.2696 17.7889 36.6142 17.7889 37.4266 18.6013C38.2391 19.4137 38.2391 20.7583 37.4266 21.5707L30.9834 28.014L37.4266 34.4572Z" fill="#D9C0D6"/>
</g>
</svg>
