<svg width="32" height="33" viewBox="0 0 32 33" fill="none" xmlns="http://www.w3.org/2000/svg">
<g id="&#240;&#159;&#166;&#134; icon &#34;sort&#34;">
<path id="Vector" d="M22.7153 0H9.30063C3.47373 0 0 3.47373 0 9.30063V22.6993C0 28.5422 3.47373 32.016 9.30063 32.016H22.6993C28.5262 32.016 31.9999 28.5422 31.9999 22.7153V9.30063C32.016 3.47373 28.5422 0 22.7153 0ZM18.137 24.012H13.8629C13.2066 24.012 12.6623 23.4677 12.6623 22.8114C12.6623 22.155 13.2066 21.6108 13.8629 21.6108H18.137C18.7934 21.6108 19.3376 22.155 19.3376 22.8114C19.3376 23.4677 18.8094 24.012 18.137 24.012ZM22.4112 17.2086H9.60479C8.94846 17.2086 8.40419 16.6643 8.40419 16.008C8.40419 15.3516 8.94846 14.8074 9.60479 14.8074H22.4112C23.0675 14.8074 23.6118 15.3516 23.6118 16.008C23.6118 16.6643 23.0675 17.2086 22.4112 17.2086ZM25.6128 10.4052H6.40319C5.74686 10.4052 5.20259 9.86091 5.20259 9.20459C5.20259 8.54826 5.74686 8.00399 6.40319 8.00399H25.6128C26.2691 8.00399 26.8134 8.54826 26.8134 9.20459C26.8134 9.86091 26.2691 10.4052 25.6128 10.4052Z" fill="#D9C0D6"/>
</g>
</svg>
