<svg width="44" height="44" viewBox="0 0 44 44" fill="none" xmlns="http://www.w3.org/2000/svg">
<g id="Vector">
<path d="M44 22C44 9.878 34.122 0 22 0C9.878 0 0 9.878 0 22C0 28.38 2.75 34.122 7.106 38.148C7.106 38.17 7.106 38.17 7.084 38.192C7.304 38.412 7.568 38.588 7.788 38.786C7.92 38.896 8.03 39.006 8.162 39.094C8.558 39.424 8.998 39.732 9.416 40.04C9.57 40.15 9.702 40.238 9.856 40.348C10.274 40.634 10.714 40.898 11.176 41.14C11.33 41.228 11.506 41.338 11.66 41.426C12.1 41.668 12.562 41.888 13.046 42.086C13.222 42.174 13.398 42.262 13.574 42.328C14.058 42.526 14.542 42.702 15.026 42.856C15.202 42.922 15.378 42.988 15.554 43.032C16.082 43.186 16.61 43.318 17.138 43.45C17.292 43.494 17.446 43.538 17.622 43.56C18.238 43.692 18.854 43.78 19.492 43.846C19.58 43.846 19.668 43.868 19.756 43.89C20.504 43.956 21.252 44 22 44C22.748 44 23.496 43.956 24.222 43.89C24.31 43.89 24.398 43.868 24.486 43.846C25.124 43.78 25.74 43.692 26.356 43.56C26.51 43.538 26.664 43.472 26.84 43.45C27.368 43.318 27.918 43.208 28.424 43.032C28.6 42.966 28.776 42.9 28.952 42.856C29.436 42.68 29.942 42.526 30.404 42.328C30.58 42.262 30.756 42.174 30.932 42.086C31.394 41.888 31.856 41.668 32.318 41.426C32.494 41.338 32.648 41.228 32.802 41.14C33.242 40.876 33.682 40.634 34.122 40.348C34.276 40.26 34.408 40.15 34.562 40.04C35.002 39.732 35.42 39.424 35.816 39.094C35.948 38.984 36.058 38.874 36.19 38.786C36.432 38.588 36.674 38.39 36.894 38.192C36.894 38.17 36.894 38.17 36.872 38.148C41.25 34.122 44 28.38 44 22ZM32.868 32.934C26.906 28.93 17.138 28.93 11.132 32.934C10.164 33.572 9.372 34.32 8.712 35.134C5.368 31.746 3.3 27.104 3.3 22C3.3 11.682 11.682 3.3 22 3.3C32.318 3.3 40.7 11.682 40.7 22C40.7 27.104 38.632 31.746 35.288 35.134C34.65 34.32 33.836 33.572 32.868 32.934Z" fill="white"/>
<path d="M22 10.8453C17.446 10.8453 13.75 14.5413 13.75 19.0953C13.75 23.5613 17.248 27.1913 21.89 27.3233H22.286C26.73 27.1693 30.228 23.5613 30.25 19.0953C30.25 14.5413 26.554 10.8453 22 10.8453Z" fill="white"/>
</g>
</svg>
